<svg xmlns="http://www.w3.org/2000/svg" width="13" height="14" viewBox="169 0 13 14"><path d="M182 13.334c-.174-3.48-1.53-6.752-3.828-9.218C175.883 1.641 172.848.18 169.618 0h-.027a.55.55 0 0 0-.35.125.577.577 0 0 0-.056.054.63.63 0 0 0-.185.44.736.736 0 0 0 0 .017v1.422a.646.646 0 0 0 .208.479.565.565 0 0 0 .346.148c5.36.338 9.633 4.941 9.937 10.718a.654.654 0 0 0 .16.4.572.572 0 0 0 .43.197h1.32a.547.547 0 0 0 .425-.199.641.641 0 0 0 .174-.434v-.032a.59.59 0 0 0 0-.001Zm-4.732-.02c-.157-2.118-1.016-4.117-2.418-5.618a8.046 8.046 0 0 0-5.213-2.605h-.046a.545.545 0 0 0-.397.169.626.626 0 0 0-.194.467V7.07a.653.653 0 0 0 .145.414.576.576 0 0 0 .39.212 6.037 6.037 0 0 1 5.103 4.539 6.798 6.798 0 0 1 .212 1.188.66.66 0 0 0 .159.382.56.56 0 0 0 .422.195h1.246a.544.544 0 0 0 .42-.193.592.592 0 0 0 .014-.016.67.67 0 0 0 .158-.439.746.746 0 0 0-.001-.038Zm-4.725-1.223a1.985 1.985 0 0 0-.474-1.3 1.711 1.711 0 0 0-1.297-.61 1.804 1.804 0 0 0-1.719 1.444 2.052 2.052 0 0 0-.053.466c0 1.054.794 1.909 1.772 1.909a1.804 1.804 0 0 0 1.718-1.444 2.052 2.052 0 0 0 .053-.465Z" fill="rgba(255, 255, 255, 1)" fill-rule="evenodd" data-name="icon-rss"/></svg>