<svg xmlns="http://www.w3.org/2000/svg" width="15.001" height="14"><path d="M15 8.443c0-2.823-1.497-4.057-3.548-4.057-1.67-.167-2.476.633-2.934 1.274a5.745 5.745 0 0 0-.11.158l.02.02V4.585h-3.35a2.668 2.668 0 0 1 .003.051c.006.257.03 1.66.003 8.125a2265.232 2265.232 0 0 1-.005 1.169h3.35V8.588a3.104 3.104 0 0 1 .03-.457c.016-.108.04-.208.071-.298a1.125 1.125 0 0 1 .01-.027 2.115 2.115 0 0 1 .025-.054c.212-.46.623-.919 1.271-1.06a1.98 1.98 0 0 1 .425-.045c1.212 0 1.698.879 1.698 2.163v5.12H15V8.443ZM3.227 4.428H.184V14h3.042V4.428Zm.214-2.956a1.437 1.437 0 0 0-.62-1.14 1.778 1.778 0 0 0-.779-.309A2.143 2.143 0 0 0 1.724 0a1.885 1.885 0 0 0-.848.19 1.589 1.589 0 0 0-.875 1.462 1.591 1.591 0 0 0 1.171 1.584 1.918 1.918 0 0 0 .515.068h.019a1.931 1.931 0 0 0 .822-.173c.577-.27.919-.828.912-1.479v-.18Z" fill="rgba(255, 255, 255, 1)" fill-rule="evenodd" data-name="icon-linkedin"/></svg>