<svg xmlns="http://www.w3.org/2000/svg" width="16" height="15.001" viewBox="125 0 16 15.001"><path d="M131.278 0c-.45 0-.98.058-1.666.167a4.463 4.463 0 0 0-1.965.814 3.53 3.53 0 0 0-1.458 2.846 2.578 2.578 0 0 0 1.103 2.04c.44.334.993.586 1.623.72a5.11 5.11 0 0 0 1.068.111 4.75 4.75 0 0 0 .4-.017c.08-.007.154-.015.221-.025a2.314 2.314 0 0 0 .075-.013c-.071.323-.157.548-.157.886a2.747 2.747 0 0 0 .227 1.048 5.313 5.313 0 0 0 .23.48 14.7 14.7 0 0 0-1.045.065c-1.685.166-3.547.654-4.374 1.747a2.21 2.21 0 0 0-.218.351 2.595 2.595 0 0 0-.342 1.187 2.151 2.151 0 0 0 1.381 2.035c.474.224 1.043.37 1.663.456a11.89 11.89 0 0 0 1.622.102 8.814 8.814 0 0 0 2.128-.226 5.846 5.846 0 0 0 1.8-.777 3.732 3.732 0 0 0 1.022-1.26 2.813 2.813 0 0 0 .273-1.218 3.044 3.044 0 0 0-.131-.901c-.467-1.52-2.057-2.162-2.623-2.976a1.01 1.01 0 0 1-.202-.584 1.223 1.223 0 0 1 .416-.88c.652-.66 1.837-1.157 1.837-2.669 0-1.114-.462-2.263-1.474-2.849h.619l1.508-.66h-3.561ZM141 2.335h-2.366V0h-1.27v2.335h-2.41v1.274h2.41v1.993h1.27V3.609H141V2.335Zm-7.603 10.75a1.748 1.748 0 0 0 .189-.81 1.666 1.666 0 0 0-.26-.885c-.35-.571-.993-1-1.542-1.382a11.042 11.042 0 0 1-.378-.273 1.587 1.587 0 0 0-.177-.016 4.524 4.524 0 0 0-.18-.002c-.937 0-2.321.17-3.26.716a1.793 1.793 0 0 0-1.02 1.57 1.818 1.818 0 0 0 .918 1.524c.67.447 1.606.693 2.456.778a6.843 6.843 0 0 0 .679.035c.848 0 2.103-.336 2.575-1.254Zm-1.059-8.768c0 .95-.461 1.72-1.438 1.72a2.691 2.691 0 0 1-2.079-1.042c-.53-.64-.827-1.467-.827-2.163a2.135 2.135 0 0 1 1.332-2.084 2.443 2.443 0 0 1 .86-.146 1.526 1.526 0 0 1 1.184.652c.647.807.968 2.18.968 3.063Z" fill="rgba(255, 255, 255, 1)" fill-rule="evenodd" data-name="icon-google-plus"/></svg>