<svg xmlns="http://www.w3.org/2000/svg" width="15" height="15" viewBox="85.5 1.5 15 15"><path d="M100.5 9.377c0-4.242-3.514-7.877-7.388-7.877-4.263 0-7.612 3.635-7.612 7.877 0 3.247 1.742 5.703 4.556 6.626-.02-.419-.01-.923.128-1.373 0 0 .147-.481.974-4.13-.249-.505-.249-1.257-.249-1.257 0-1.175.658-2.052 1.475-2.052.698 0 1.036.547 1.036 1.196 0 .722-.447 1.804-.677 2.804-.19.845.41 1.525 1.086 1.525 1.127 0 1.884-1.927 1.884-4.205 0-1.668-.88-2.736-2.521-2.736-2.322 0-3.743 1.489-3.743 3.488 0 .69.196 1.175.5 1.557.137.175.156.237.107.443-.039.144-.117.495-.156.629-.05.206-.206.278-.373.206-1.178-.453-1.733-1.67-1.733-3.03 0-2.183 1.998-5.156 5.607-5.156 2.272 0 4.805 2.558 4.805 4.743 0 3.113-2.227 5.432-4.246 5.432-.668 0-1.446-.464-1.705-.99-.449 1.618-.538 1.882-.538 1.882-.16.458-.489.916-.778 1.273a9.487 9.487 0 0 0 2.173.248c3.874 0 7.388-2.753 7.388-7.123Z" fill="rgba(255, 255, 255, 1)" fill-rule="evenodd" data-name="icon-pinterest"/></svg>