<svg xmlns="http://www.w3.org/2000/svg" width="15" height="13" viewBox="43.5 2.5 15 13"><path d="M58.5 4.044c-.55.254-1.15.436-1.769.507a3.242 3.242 0 0 0 1.352-1.807c-.59.375-1.256.65-1.951.792A2.981 2.981 0 0 0 53.885 2.5c-1.704 0-3.074 1.473-3.074 3.28 0 .254.028.508.076.752-2.551-.142-4.826-1.442-6.34-3.433a3.424 3.424 0 0 0-.419 1.656c0 1.137.543 2.143 1.37 2.732a2.951 2.951 0 0 1-1.389-.417v.04c0 1.595 1.057 2.916 2.466 3.22a3.063 3.063 0 0 1-.81.112c-.2 0-.39-.02-.58-.05.39 1.3 1.523 2.244 2.875 2.274a5.917 5.917 0 0 1-3.818 1.402c-.257 0-.495-.01-.742-.04a8.298 8.298 0 0 0 4.721 1.472c5.655 0 8.748-4.997 8.748-9.334 0-.142 0-.284-.01-.426a6.819 6.819 0 0 0 1.54-1.696Z" fill="rgba(255, 255, 255, 1)" fill-rule="evenodd" data-name="icon-twitter"/></svg>